<svg width="1280" height="720" xmlns="http://www.w3.org/2000/svg" xmlns:xlink="http://www.w3.org/1999/xlink" overflow="hidden"><defs><clipPath id="clip0"><rect x="0" y="0" width="1280" height="720"/></clipPath></defs><g clip-path="url(#clip0)"><rect x="0" y="0" width="1280" height="720" fill="#FFFFFF"/><text fill="#CC1616" font-family="Bernard MT Condensed,Bernard MT Condensed_MSFontService,sans-serif" font-weight="400" font-stretch="condensed" font-size="16" transform="translate(80.2499 253)">Understanding Business</text><text fill="#CC1616" font-family="Bernard MT Condensed,Bernard MT Condensed_MSFontService,sans-serif" font-weight="400" font-stretch="condensed" font-size="16" transform="translate(78.2499 272)">Needs and opportunities</text><text fill="#CC1616" font-family="Bernard MT Condensed,Bernard MT Condensed_MSFontService,sans-serif" font-weight="700" font-stretch="condensed" font-size="27" transform="translate(100.887 196)">BUSINESS</text><text fill="#CC1616" font-family="Bernard MT Condensed,Bernard MT Condensed_MSFontService,sans-serif" font-weight="700" font-stretch="condensed" font-size="27" transform="translate(90.8999 228)">CONSULTNG</text><text fill="#CC1616" font-family="Bernard MT Condensed,Bernard MT Condensed_MSFontService,sans-serif" font-weight="700" font-stretch="condensed" font-size="27" transform="translate(427.742 193)">LEAD IDENTIFICATION</text><text fill="#CC1616" font-family="Bernard MT Condensed,Bernard MT Condensed_MSFontService,sans-serif" font-weight="700" font-stretch="condensed" font-size="27" transform="translate(856.555 196)">NEGOTIATIONS</text><text fill="#CC1616" font-family="Bernard MT Condensed,Bernard MT Condensed_MSFontService,sans-serif" font-weight="700" font-stretch="condensed" font-size="27" transform="translate(271.552 536)">RESEARCH</text><text fill="#CC1616" font-family="Bernard MT Condensed,Bernard MT Condensed_MSFontService,sans-serif" font-weight="700" font-stretch="condensed" font-size="27" transform="translate(655.456 533)">COMMUNICATION</text><text fill="#CC1616" font-family="Bernard MT Condensed,Bernard MT Condensed_MSFontService,sans-serif" font-weight="700" font-stretch="condensed" font-size="27" transform="translate(1075.46 544)">COMPLETION</text><path d="M544.415 587.053C544.415 588.737 543.17 590 541.509 590 524.906 590 524.906 590 524.906 590 523.66 590 522.415 588.737 522.415 587.053 522.415 587.053 522.415 587.053 522.415 587.053 522.415 585.789 523.66 584.526 524.906 584.526 541.509 584.526 541.509 584.526 541.509 584.526 543.17 584.526 544.415 585.789 544.415 587.053ZM544.415 579.895C544.415 578.211 543.17 576.947 541.509 576.947 524.906 576.947 524.906 576.947 524.906 576.947 523.66 576.947 522.415 578.211 522.415 579.895 522.415 579.895 522.415 579.895 522.415 579.895 522.415 581.579 523.66 582.842 524.906 582.842 541.509 582.842 541.509 582.842 541.509 582.842 543.17 582.842 544.415 581.579 544.415 579.895ZM535.698 549.579C532.377 549.579 532.377 549.579 532.377 549.579 530.717 549.579 530.717 549.579 530.717 549.579 530.717 575.684 530.717 575.684 530.717 575.684 531.547 575.684 532.377 575.684 533.208 575.684 533.208 575.684 533.208 575.684 533.208 575.684 533.208 575.684 533.208 575.684 533.208 575.684 533.208 575.684 533.208 575.684 533.208 575.684 533.208 575.684 533.208 575.684 533.208 575.684 534.038 575.684 534.868 575.684 535.698 575.684L535.698 549.579ZM524.076 539.053C522 539.053 520.34 540.737 520.34 542.842 520.34 544.947 522 547.053 524.076 547.053 528.226 547.053 528.226 547.053 528.226 547.053 528.226 542.842 528.226 542.842 528.226 542.842 528.226 540.737 526.151 539.053 524.076 539.053ZM546.491 542.842C546.491 540.737 544.415 539.053 542.34 539.053 540.264 539.053 538.604 540.737 538.604 542.842 538.604 547.053 538.604 547.053 538.604 547.053 542.34 547.053 542.34 547.053 542.34 547.053 544.415 547.053 546.491 544.947 546.491 542.842ZM555.208 535.684C553.132 528.526 544.83 520.947 533.208 520.947 521.585 520.947 513.283 528.526 511.623 535.684 509.962 541.158 511.208 546.211 514.113 551.263 516.189 555.474 518.679 559.263 520.755 563.895 521.585 566.421 522 569.789 522.83 572.737 523.245 574.842 524.076 575.684 526.566 575.684 526.981 575.684 527.396 575.684 528.226 575.684 528.226 549.579 528.226 549.579 528.226 549.579 524.076 549.579 524.076 549.579 524.076 549.579 522.415 549.579 520.755 548.737 519.509 547.474 518.264 546.211 517.434 544.526 517.434 542.842 517.434 541.158 518.264 539.474 519.509 538.211 520.755 536.947 522.415 536.105 524.076 536.105 527.811 536.105 530.717 539.053 530.717 542.842 530.717 542.842 530.717 542.842 530.717 542.842 530.717 547.053 530.717 547.053 530.717 547.053 532.377 547.053 532.377 547.053 532.377 547.053 535.698 547.053 535.698 547.053 535.698 547.053 535.698 542.842 535.698 542.842 535.698 542.842 535.698 542.842 535.698 542.842 535.698 542.842 535.698 541.158 536.528 539.474 537.774 538.211 539.019 536.947 540.679 536.105 542.34 536.105 544 536.105 545.66 536.947 546.906 538.211 548.151 539.474 548.981 541.158 548.981 542.842 548.981 544.526 548.151 546.211 546.906 547.474 545.66 548.737 544 549.579 542.34 549.579 538.604 549.579 538.604 549.579 538.604 549.579 538.604 575.684 538.604 575.684 538.604 575.684 539.019 575.684 539.434 575.684 539.849 575.684 542.755 575.684 543.17 574.842 544 572.737 544.415 569.789 544.83 566.421 546.075 563.895 547.736 559.263 550.226 555.474 552.717 551.263 555.208 546.211 556.453 541.158 555.208 535.684ZM535.698 512.526C535.698 511.263 534.453 510 533.208 510 533.208 510 533.208 510 533.208 510 531.962 510 530.717 511.263 530.717 512.526 530.717 517.158 530.717 517.158 530.717 517.158 530.717 518.421 531.962 519.684 533.208 519.684 533.208 519.684 533.208 519.684 533.208 519.684 534.453 519.684 535.698 518.421 535.698 517.158L535.698 512.526ZM548.981 516.737C549.396 515.474 548.981 513.789 548.151 513.368 548.151 513.368 548.151 513.368 548.151 513.368 546.906 512.526 545.245 512.947 544.83 514.211 542.755 518.421 542.755 518.421 542.755 518.421 541.924 519.263 542.34 520.947 543.585 521.368 543.585 521.368 543.585 521.368 543.585 521.368 544.83 522.211 546.075 521.789 546.906 520.526L548.981 516.737ZM558.528 524.316C559.774 523.474 559.774 522.211 558.943 520.947 558.943 520.947 558.943 520.947 558.943 520.947 558.113 520.105 556.453 520.105 555.623 520.947 552.302 523.895 552.302 523.895 552.302 523.895 551.057 524.737 551.057 526 551.887 527.263 551.887 527.263 551.887 527.263 551.887 527.263 552.717 528.105 554.377 528.105 555.208 527.263L558.528 524.316ZM563.924 536.526C565.17 536.105 566 534.842 566 533.579 566 533.579 566 533.579 566 533.579 565.585 532.316 564.34 531.474 563.094 531.474 558.528 532.316 558.528 532.316 558.528 532.316 557.283 532.737 556.453 534 556.868 535.263 556.868 535.263 556.868 535.263 556.868 535.263 556.868 536.526 558.113 537.368 559.359 536.947L563.924 536.526ZM562.679 549.158C563.924 549.579 565.17 548.737 565.585 547.474 565.585 547.474 565.585 547.474 565.585 547.474 566 546.211 565.17 544.947 563.924 544.526 559.359 543.684 559.359 543.684 559.359 543.684 558.113 543.263 556.868 544.105 556.453 545.368 556.453 545.368 556.453 545.368 556.453 545.368 556.453 547.053 557.283 548.316 558.528 548.316L562.679 549.158ZM519.509 520.526C519.924 521.789 521.585 522.211 522.83 521.368 522.83 521.368 522.83 521.368 522.83 521.368 523.66 520.947 524.076 519.263 523.66 518.421 521.585 514.211 521.585 514.211 521.585 514.211 520.755 512.947 519.509 512.526 518.264 513.368 518.264 513.368 518.264 513.368 518.264 513.368 517.019 513.789 516.604 515.474 517.434 516.737L519.509 520.526ZM510.792 527.263C511.623 528.105 513.283 528.105 514.113 527.263 514.113 527.263 514.113 527.263 514.113 527.263 514.943 526 514.943 524.737 514.113 523.895 510.792 520.947 510.792 520.947 510.792 520.947 509.547 520.105 508.302 520.105 507.472 520.947 507.472 520.947 507.472 520.947 507.472 520.947 506.226 522.211 506.642 523.474 507.472 524.316L510.792 527.263ZM506.642 536.947C507.887 537.368 509.132 536.526 509.547 535.263 509.547 535.263 509.547 535.263 509.547 535.263 509.547 534 508.717 532.737 507.472 532.316 503.321 531.474 503.321 531.474 503.321 531.474 502.075 531.474 500.83 532.316 500.415 533.579 500.415 533.579 500.415 533.579 500.415 533.579 500 534.842 501.245 536.105 502.491 536.526L506.642 536.947ZM507.887 548.316C509.132 548.316 509.962 547.053 509.547 545.368 509.547 545.368 509.547 545.368 509.547 545.368 509.132 544.105 507.887 543.263 506.642 543.684 502.491 544.526 502.491 544.526 502.491 544.526 501.245 544.947 500.415 546.211 500.415 547.474 500.415 547.474 500.415 547.474 500.415 547.474 500.83 548.737 502.075 549.579 503.321 549.158L507.887 548.316Z" fill="#595959" fill-rule="evenodd"/><path d="M956.063 520.865C964.9 542.23 964.9 542.23 964.9 542.23 953.959 546.838 953.959 546.838 953.959 546.838 948.068 542.23 930.814 527.149 929.131 527.149 927.869 527.149 922.398 528.824 921.977 529.243 921.977 529.243 918.611 530.081 915.665 530.081 914.403 530.081 913.561 529.662 912.719 529.243 911.878 528.824 911.457 528.405 911.457 527.987 911.878 526.73 913.14 525.473 913.561 525.054 918.19 522.959 930.394 518.351 931.656 517.932 931.656 517.932 932.077 517.932 932.077 517.932 935.023 517.932 953.959 520.446 956.063 520.865ZM963.638 515C963.638 515 963.217 515 962.796 515 959.43 516.257 959.43 516.257 959.43 516.257 958.588 516.676 958.167 517.095 957.747 517.513 957.747 518.351 957.747 518.77 957.747 519.608 967.005 542.23 967.005 542.23 967.005 542.23 967.425 543.487 968.688 543.905 969.95 543.487 973.738 542.23 973.738 542.23 973.738 542.23 974.158 541.811 974.579 541.392 975 540.973 975 540.135 975 539.716 975 538.878 966.163 516.257 966.163 516.257 966.163 516.257 965.742 515.419 964.9 515 963.638 515ZM882 546C882 546.419 882 547.257 882.421 547.676 882.842 548.095 883.683 548.513 884.104 548.513 887.891 548.513 887.891 548.513 887.891 548.513 889.154 548.932 890.416 547.676 890.416 546.419 892.52 521.284 892.52 521.284 892.52 521.284 892.52 520.446 892.52 520.027 892.1 519.189 891.679 518.77 890.837 518.77 890.416 518.351 886.629 518.351 886.629 518.351 886.629 518.351 886.208 518.351 886.208 518.351 886.208 518.351 884.946 518.351 884.104 519.189 883.683 520.446L882 546ZM920.294 568.203C920.294 567.784 919.453 566.946 918.611 566.108 917.348 564.851 915.665 564.851 913.982 566.946 912.299 569.041 912.299 569.041 912.299 569.041 912.299 569.041 912.299 569.041 912.299 569.041 910.615 571.135 910.615 571.135 910.615 571.135 908.511 573.649 910.615 575.324 911.036 576.162 911.878 576.581 912.719 577 913.14 577 914.403 577 915.244 576.162 916.086 575.324 918.611 572.392 918.611 572.392 918.611 572.392 918.611 572.392 918.611 572.392 918.611 572.392 919.453 571.135 919.453 571.135 919.453 571.135 920.294 570.297 920.294 569.459 920.294 568.203ZM902.199 566.946C900.937 568.622 901.357 569.878 903.041 571.554 904.724 572.811 906.407 572.392 908.091 570.716 912.299 565.689 912.299 565.689 912.299 565.689 914.403 563.176 912.299 561.081 911.878 560.662 910.195 559.405 908.511 559.405 906.828 561.081 904.724 564.013 904.724 564.013 904.724 564.013 904.724 564.013 904.724 564.013 904.724 564.013 904.303 564.432 904.303 564.432 904.303 564.432L902.199 566.946ZM895.466 560.662C895.045 561.5 894.624 562.338 894.624 563.176 895.045 564.013 895.466 564.851 896.308 565.689 897.991 566.946 899.674 566.527 900.937 564.851 905.986 558.987 905.986 558.987 905.986 558.987 906.828 558.149 906.828 557.311 906.828 556.473 906.407 555.635 905.986 554.797 905.145 554.378 903.462 552.703 902.199 553.122 900.516 554.797 897.991 557.73 897.991 557.73 897.991 557.73 897.991 557.73 897.991 557.73 897.991 557.73 897.991 558.149 897.991 558.149 897.991 558.149L895.466 560.662ZM894.624 558.568C899.253 552.703 899.253 552.703 899.253 552.703 901.357 550.189 899.674 548.513 898.833 547.676 897.149 546.419 895.466 546.838 894.204 548.513 892.52 550.608 892.52 550.608 892.52 550.608 892.52 550.608 892.52 550.608 892.52 550.608 892.52 550.608 892.52 550.608 892.52 550.608 889.995 553.122 889.995 553.122 889.995 553.122 889.154 554.378 888.733 555.216 889.154 556.054 889.154 556.892 889.575 557.73 889.995 557.73 890.837 558.568 891.679 559.405 892.941 559.405 893.362 559.405 894.204 558.987 894.624 558.568ZM952.697 553.541C953.538 552.284 954.38 550.189 952.276 548.513 950.172 546.838 950.172 546.838 950.172 546.838 941.756 539.297 931.235 530.5 929.131 529.243 927.869 529.662 924.923 530.5 922.819 531.338 922.398 531.338 922.398 531.338 922.398 531.338 922.398 531.338 919.032 532.176 915.665 532.176 913.982 532.176 912.719 531.757 911.457 531.338 909.774 530.081 909.353 528.405 909.353 527.568 909.353 525.892 911.036 524.216 912.299 523.378 894.624 521.284 894.624 521.284 894.624 521.284 892.941 546.419 892.941 546.419 892.941 546.419 894.204 545.162 895.887 544.743 896.729 544.743 897.991 544.743 899.253 545.162 900.095 546 901.778 547.676 902.62 549.351 902.62 551.027 903.882 551.027 905.566 551.446 906.828 552.703 908.511 553.959 909.353 555.635 908.932 557.73 910.195 557.311 911.878 557.73 913.14 558.987 914.403 560.243 915.244 561.5 915.244 563.176 916.928 562.757 918.611 563.176 920.294 564.432 922.398 566.108 922.819 568.622 921.977 570.716 923.661 571.973 923.661 571.973 923.661 571.973 923.661 571.973 924.081 571.973 924.081 571.973 924.081 572.392 924.081 572.392 924.081 572.392 924.923 572.811 925.344 572.811 925.765 572.811 927.027 572.811 927.869 571.973 928.29 571.554 929.552 570.297 929.973 569.041 928.71 567.784 928.71 567.784 928.71 567.784 928.71 567.784 920.715 561.081 920.715 561.081 920.715 561.081 920.294 560.662 920.294 560.662 920.294 560.243 920.294 559.824 920.294 559.405 920.715 559.405 921.136 558.568 921.977 558.568 922.398 558.987 932.498 567.784 932.498 567.784 932.498 567.784 933.339 568.203 933.76 568.203 934.602 568.203 935.443 568.203 936.285 567.784 937.127 566.946 937.968 566.108 937.968 565.27 937.968 564.432 937.968 563.595 937.547 562.757 936.706 561.919 935.443 561.081 935.443 561.081 935.443 561.081 935.443 561.081 935.443 561.081 935.443 561.081 929.552 556.054 929.552 556.054 929.552 556.054 929.552 556.054 929.131 555.635 929.131 555.216 929.131 555.216 929.131 554.797 929.552 554.378 929.973 553.959 930.814 553.959 931.235 554.378 940.493 561.919 940.493 561.919 940.493 561.919 941.335 562.338 942.176 562.757 943.018 562.757 943.86 562.757 945.122 562.338 945.964 561.081 946.805 560.243 946.805 559.405 946.805 558.568 946.805 557.73 946.385 556.892 945.543 556.054 942.597 553.959 942.597 553.959 942.597 553.959 942.597 553.959 942.597 553.959 942.597 553.959 937.547 549.77 937.547 549.77 937.547 549.77 937.127 549.351 937.127 548.513 937.547 548.095 937.968 547.676 938.81 547.676 939.231 548.095 947.226 554.378 947.226 554.378 947.226 554.378 948.909 555.635 951.014 555.216 952.697 553.541Z" fill="#595959" fill-rule="evenodd"/><path d="M167.246 571.24C165.566 572.075 163.466 572.911 161.786 573.329 155.907 574.582 150.028 575 142.47 575 134.911 575 129.032 574.582 123.153 573.329 121.053 572.911 119.374 572.075 117.694 571.24 112.655 569.151 112.655 564.973 115.174 562.048 118.534 559.123 122.313 556.616 126.512 554.945 128.192 554.11 129.872 553.274 131.972 552.856 135.331 551.185 136.171 547.842 133.651 545.336 128.612 540.322 126.512 534.055 126.932 526.952 126.932 519.849 131.552 516.089 138.27 514.418 139.53 514 140.79 514 142.47 514 143.73 514 144.989 514 146.669 514.418 153.388 516.089 157.587 519.849 158.007 526.952 158.007 534.055 156.327 540.322 151.288 545.336 148.349 547.842 149.609 551.185 152.968 552.856 154.648 553.274 156.747 554.11 158.427 554.945 162.626 556.616 166.406 559.123 169.345 562.048 171.445 564.137 172.285 569.151 167.246 571.24ZM197.9 565.808C195.801 563.719 193.281 562.466 190.342 561.212 189.082 560.377 187.822 559.959 186.562 559.541 184.043 558.706 183.623 556.199 185.302 554.527 189.082 550.767 190.342 546.589 189.922 541.575 189.922 536.562 186.982 534.055 182.363 532.801 181.103 532.384 180.263 532.384 179.423 532.384 178.164 532.384 177.324 532.384 176.484 532.801 171.445 534.055 168.505 536.562 168.505 541.575 168.085 546.589 169.765 550.767 173.125 554.527 174.804 556.199 174.384 558.706 171.865 559.541 171.865 559.541 171.865 559.541 171.445 559.541 171.865 559.959 172.285 560.377 172.705 560.794 174.384 562.048 175.224 564.973 174.804 567.479 174.384 569.986 172.705 572.075 169.765 573.329 169.345 573.747 168.505 573.747 167.665 574.164 171.025 574.582 174.804 575 179.423 575 184.463 575 188.662 574.582 192.861 573.747 194.121 573.329 195.381 572.911 196.641 572.493 200 570.822 199.58 567.479 197.9 565.808ZM109.715 567.479C109.295 564.973 110.135 562.466 112.235 560.794 112.655 559.959 113.495 559.123 114.335 558.288 113.915 558.288 113.495 557.87 113.075 557.87 110.555 556.616 109.715 554.11 111.395 552.021 115.594 548.26 116.854 543.664 116.854 538.233 116.434 532.384 113.495 529.459 108.036 528.206 106.776 528.206 105.936 527.788 104.676 527.788 103.836 527.788 102.577 528.206 101.737 528.206 96.2776 529.459 92.9182 532.384 92.9182 538.233 92.4982 543.664 94.1779 548.26 97.9573 552.021 100.057 554.11 99.2171 556.616 96.6975 557.87 95.4377 558.288 93.758 558.706 92.4982 559.541 89.5587 560.794 86.6192 562.466 84.0996 564.973 82 567.062 82 570.404 85.7794 572.075 87.0391 572.911 88.2989 573.329 89.9786 573.747 94.5979 574.582 99.2171 575 104.676 575 109.295 575 113.495 574.582 116.854 574.164 116.434 573.747 115.594 573.747 114.754 573.329 111.815 572.075 110.135 569.568 109.715 567.479Z" fill="#595959" fill-rule="evenodd"/><path d="M306.471 262.438C306.471 244.431 306.471 244.431 306.471 244.431 306.471 243.175 307.728 241.919 309.403 241.919 313.592 241.919 313.592 241.919 313.592 241.919 315.267 241.919 316.524 243.175 316.524 244.431 316.524 262.438 316.524 262.438 316.524 262.438 316.524 264.112 315.267 265.369 313.592 265.369 309.403 265.369 309.403 265.369 309.403 265.369 307.728 265.369 306.471 264.112 306.471 262.438ZM325.319 235.219C324.063 235.219 322.806 236.475 322.806 238.15 322.806 262.438 322.806 262.438 322.806 262.438 322.806 264.112 324.063 265.369 325.319 265.369 329.927 265.369 329.927 265.369 329.927 265.369 331.183 265.369 332.44 264.112 332.44 262.438 332.44 238.15 332.44 238.15 332.44 238.15 332.44 236.475 331.183 235.219 329.927 235.219L325.319 235.219ZM341.236 229.775C339.979 229.775 338.723 231.031 338.723 232.706 338.723 262.438 338.723 262.438 338.723 262.438 338.723 264.112 339.979 265.369 341.236 265.369 345.843 265.369 345.843 265.369 345.843 265.369 347.099 265.369 348.356 264.112 348.356 262.438 348.356 232.706 348.356 232.706 348.356 232.706 348.356 231.031 347.099 229.775 345.843 229.775L341.236 229.775ZM357.571 224.331C355.895 224.331 354.639 225.169 354.639 226.844 354.639 262.438 354.639 262.438 354.639 262.438 354.639 264.112 355.895 265.369 357.571 265.369 361.759 265.369 361.759 265.369 361.759 265.369 363.435 265.369 364.272 264.112 364.272 262.438 364.272 226.844 364.272 226.844 364.272 226.844 364.272 225.169 363.435 224.331 361.759 224.331L357.571 224.331ZM307.728 234.8C324.901 231.45 341.236 225.587 355.476 216.794 356.733 219.306 356.733 219.306 356.733 219.306 361.759 211.35 361.759 211.35 361.759 211.35 352.544 210.931 352.544 210.931 352.544 210.931 353.801 213.863 353.801 213.863 353.801 213.863 339.56 222.238 324.063 228.1 307.309 231.45L307.728 234.8ZM376 270.394C368.042 265.369 368.042 265.369 368.042 265.369 368.042 268.3 368.042 268.3 368.042 268.3 302.283 268.3 302.283 268.3 302.283 268.3 302.283 215.956 302.283 215.956 302.283 215.956 305.215 215.956 305.215 215.956 305.215 215.956 300.607 208 300.607 208 300.607 208 296 215.956 296 215.956 296 215.956 298.932 215.956 298.932 215.956 298.932 215.956 298.932 268.3 298.932 268.3 298.932 268.3 298.932 270.394 298.932 270.394 298.932 270.394 298.932 272.069 298.932 272.069 298.932 272.069 368.042 272.069 368.042 272.069 368.042 272.069 368.042 275 368.042 275 368.042 275L376 270.394Z" fill="#595959" fill-rule="evenodd"/><path d="M741.447 214.366C737.271 214.366 737.271 214.366 737.271 214.366 736.853 211.856 734.765 209.765 732.676 209.765 724.324 209.765 724.324 209.765 724.324 209.765 722.235 209.765 720.147 211.856 719.729 214.366 715.553 214.366 715.553 214.366 715.553 214.366 715.971 209.765 719.312 206 723.488 206 733.512 206 733.512 206 733.512 206 737.688 206 741.029 209.765 741.447 214.366ZM703.859 241.556C721.818 241.556 721.818 241.556 721.818 241.556 721.818 239.046 721.818 239.046 721.818 239.046 721.818 236.954 723.071 235.699 725.159 235.699 731.841 235.699 731.841 235.699 731.841 235.699 733.929 235.699 735.6 236.954 735.6 239.046 735.6 241.556 735.6 241.556 735.6 241.556 753.559 241.556 753.559 241.556 753.559 241.556 758.988 241.556 763.165 237.373 764 231.516 764 225.66 764 225.66 764 225.66 764 220.641 760.659 216.458 756.065 216.458 751.888 216.458 751.888 216.458 751.888 216.458 750.218 216.458 750.218 216.458 750.218 216.458 746.876 216.458 746.876 216.458 746.876 216.458 743.953 216.458 743.953 216.458 743.953 216.458 741.865 216.458 741.865 216.458 741.865 216.458 736.853 216.458 736.853 216.458 736.853 216.458 720.147 216.458 720.147 216.458 720.147 216.458 715.135 216.458 715.135 216.458 715.135 216.458 709.706 216.458 709.706 216.458 709.706 216.458 706.365 216.458 706.365 216.458 706.365 216.458 703.859 216.458 703.859 216.458 703.859 216.458 701.353 216.458 701.353 216.458 701.353 216.458 696.759 216.458 693 220.641 693 225.66 693 231.516 693 231.516 693 231.516 693.835 237.373 698.429 241.556 703.859 241.556ZM753.559 244.484C735.6 244.484 735.6 244.484 735.6 244.484 735.6 246.993 735.6 246.993 735.6 246.993 735.6 249.085 733.929 250.758 731.841 250.758 725.159 250.758 725.159 250.758 725.159 250.758 723.071 250.758 721.818 249.085 721.818 246.993 721.818 244.484 721.818 244.484 721.818 244.484 703.859 244.484 703.859 244.484 703.859 244.484 699.265 244.484 695.088 241.974 693 238.209 693 260.797 693 260.797 693 260.797 693 265.817 696.759 270 701.353 270 703.859 270 703.859 270 703.859 270 706.365 270 706.365 270 706.365 270 709.706 270 709.706 270 709.706 270 746.876 270 746.876 270 746.876 270 750.218 270 750.218 270 750.218 270 751.888 270 751.888 270 751.888 270 756.065 270 756.065 270 756.065 270 760.659 270 764 265.817 764 260.797 764 238.209 764 238.209 764 238.209 761.912 241.974 757.735 244.484 753.559 244.484ZM731.841 238.209C725.159 238.209 725.159 238.209 725.159 238.209 724.741 238.209 723.906 238.627 723.906 239.464 723.906 241.137 723.906 241.137 723.906 241.137 723.906 241.974 723.906 241.974 723.906 241.974 723.906 244.484 723.906 244.484 723.906 244.484 723.906 245.32 723.906 245.32 723.906 245.32 723.906 246.993 723.906 246.993 723.906 246.993 723.906 247.412 724.741 248.248 725.159 248.248 731.841 248.248 731.841 248.248 731.841 248.248 732.676 248.248 733.094 247.412 733.094 246.993 733.094 245.32 733.094 245.32 733.094 245.32 733.094 244.484 733.094 244.484 733.094 244.484 733.094 241.974 733.094 241.974 733.094 241.974 733.094 241.137 733.094 241.137 733.094 241.137 733.094 239.464 733.094 239.464 733.094 239.464 733.094 238.627 732.676 238.209 731.841 238.209Z" fill="#595959" fill-rule="evenodd"/><path d="M1148 247.054C1148 239.103 1141.69 232.826 1129.49 229.897 1128.23 229.478 1121.08 227.804 1119.82 227.386 1110.14 224.875 1107.62 223.62 1107.62 221.109 1107.62 218.179 1110.98 215.25 1120.66 215.25 1127.81 215.25 1134.54 220.272 1134.54 220.272 1137.06 221.946 1138.75 221.946 1141.27 219.853 1141.27 219.853 1144.21 217.342 1144.21 215.25 1144.21 211.484 1135.8 206.462 1126.97 204.788 1126.97 198.929 1126.97 198.929 1126.97 198.929 1126.97 197.255 1125.29 196 1123.6 196 1119.4 196 1119.4 196 1119.4 196 1117.29 196 1116.03 197.255 1116.03 198.929 1116.03 204.37 1116.03 204.37 1116.03 204.37 1102.15 205.625 1095 212.739 1095 221.527 1095 231.152 1104.25 235.337 1114.77 237.848 1116.45 238.266 1124.44 240.359 1125.71 240.777 1133.7 242.451 1135.38 245.38 1135.38 247.473 1135.38 250.821 1132.02 253.75 1121.92 253.75 1115.19 253.75 1105.94 247.891 1105.94 247.891 1102.99 246.217 1100.89 246.636 1098.79 249.147 1098.79 249.147 1096.68 251.239 1096.68 253.75 1096.68 257.516 1106.78 262.12 1116.03 264.212 1116.03 270.071 1116.03 270.071 1116.03 270.071 1116.03 271.745 1117.29 273 1119.4 273 1123.6 273 1123.6 273 1123.6 273 1125.29 273 1126.97 271.745 1126.97 270.071 1126.97 264.63 1126.97 264.63 1126.97 264.63 1141.69 262.957 1148 255.424 1148 247.054Z" fill="#595959" fill-rule="evenodd"/><path d="M616.379 348.023C537.831 302.679 537.831 302.679 537.831 302.679 534.89 301 531.11 301 528.169 302.679 450.041 347.603 450.041 347.603 450.041 347.603 447.1 349.282 445 352.641 445 356 621 356 621 356 621 356 621 352.641 619.32 349.702 616.379 348.023Z" fill="#D6DCE5" fill-rule="evenodd"/><path d="M621 358.419C621 358.419 621 358.419 621 358 445 358 445 358 445 358 445 448.581 445 448.581 445 448.581 445 448.581 445 448.581 445 449 621 449 621 449 621 449 621 448.581 621 448.581 621 448.581L621 358.419Z" fill="#D6DCE5" fill-rule="evenodd"/><path d="M450.041 458.977C528.169 504.321 528.169 504.321 528.169 504.321 531.11 506 534.89 506 537.831 504.321 616.379 458.977 616.379 458.977 616.379 458.977 619.32 457.298 621 454.359 621 451 445 451 445 451 445 451 445 454.359 447.1 457.298 450.041 458.977Z" fill="#D6DCE5" fill-rule="evenodd"/><path d="M842.041 458.832C920.169 503.351 920.169 503.351 920.169 503.351 923.11 505 926.89 505 929.831 503.351 1008.38 458.832 1008.38 458.832 1008.38 458.832 1011.32 457.183 1013 454.298 1013 451 837 451 837 451 837 451 837.42 454.298 839.1 457.183 842.041 458.832Z" fill="#D6DCE5" fill-rule="evenodd"/><path d="M1013 358C1013 358 1013 358 1013 358 837 358 837 358 837 358 837 448.579 837 448.579 837 448.579 837 448.579 837 449 837 449 1013 449 1013 449 1013 449 1013 449 1013 448.579 1013 448.579L1013 358Z" fill="#D6DCE5" fill-rule="evenodd"/><path d="M1008.38 347.667C930.251 302.667 930.251 302.667 930.251 302.667 926.89 301 923.11 301 920.169 302.667 842.041 347.667 842.041 347.667 842.041 347.667 839.1 349.333 837 352.25 837 356 837 356 837 356 837 356 1013 356 1013 356 1013 356 1013 352.667 1011.32 349.333 1008.38 347.667Z" fill="#D6DCE5" fill-rule="evenodd"/><path d="M253.621 457.977C332.169 503.321 332.169 503.321 332.169 503.321 335.11 505 338.89 505 341.831 503.321 419.959 458.397 419.959 458.397 419.959 458.397 422.9 456.718 425 453.359 425 450 249 450 249 450 249 450 249 453.359 250.68 456.298 253.621 457.977Z" fill="#D6DCE5" fill-rule="evenodd"/><path d="M419.959 347.667C341.831 302.667 341.831 302.667 341.831 302.667 338.89 301 335.11 301 332.169 302.667 254.041 347.667 254.041 347.667 254.041 347.667 250.68 349.333 249 352.667 249 356 249 356 249 356 249 356 425 356 425 356 425 356 425 352.667 423.32 349.333 419.959 347.667Z" fill="#D6DCE5" fill-rule="evenodd"/><path d="M425 358C425 358 425 358 425 358 249 358 249 358 249 358 249 447.583 249 447.583 249 447.583 249 448 249 448 249 448 425 448 425 448 425 448 425 448 425 448 425 448L425 358Z" fill="#D6DCE5" fill-rule="evenodd"/><path d="M229 358.421C229 358 229 358 229 358 53.419 358 53.419 358 53.419 358 53.419 358 53.419 358 53.419 358 53 448.579 53 448.579 53 448.579 53 449 53.419 449 53.419 449 229 449 229 449 229 449 229 449 229 449 229 449L229 358.421Z" fill="#D6DCE5" fill-rule="evenodd"/><path d="M223.959 347.667C145.831 303.083 145.831 303.083 145.831 303.083 142.89 301 139.11 301 136.169 303.083 57.6205 347.667 57.6205 347.667 57.6205 347.667 54.6802 349.333 53 352.667 53 356 229 356 229 356 229 356 229 352.667 226.9 349.333 223.959 347.667Z" fill="#D6DCE5" fill-rule="evenodd"/><path d="M57.6205 458.397C135.749 503.321 135.749 503.321 135.749 503.321 139.11 505 142.47 505 145.831 503.321 223.959 458.397 223.959 458.397 223.959 458.397 226.9 456.718 229 453.359 229 450 53 450 53 450 53 450 53 453.359 54.6802 456.718 57.6205 458.397Z" fill="#D6DCE5" fill-rule="evenodd"/><path d="M646.041 458.977C724.169 504.321 724.169 504.321 724.169 504.321 727.11 506 730.89 506 733.831 504.321 812.379 458.977 812.379 458.977 812.379 458.977 815.32 457.298 817 454.359 817 451 641 451 641 451 641 451 641.42 454.359 643.1 457.298 646.041 458.977Z" fill="#D6DCE5" fill-rule="evenodd"/><path d="M817 358.419C817 358.419 817 358.419 817 358 641 358 641 358 641 358 641 448.581 641 448.581 641 448.581 641 448.581 641 448.581 641 449 816.581 449 816.581 449 816.581 449 816.581 448.581 817 448.581 817 448.581L817 358.419Z" fill="#D6DCE5" fill-rule="evenodd"/><path d="M811.971 348.023C734.029 302.679 734.029 302.679 734.029 302.679 731.095 301 727.324 301 723.971 302.679 646.029 347.603 646.029 347.603 646.029 347.603 643.095 349.282 641 352.641 641 356 817 356 817 356 817 356 817 352.641 814.905 349.702 811.971 348.023Z" fill="#D6DCE5" fill-rule="evenodd"/><path d="M1203.99 347.667C1126.3 303.083 1126.3 303.083 1126.3 303.083 1123.38 301 1119.62 301 1116.7 303.083 1038.59 347.667 1038.59 347.667 1038.59 347.667 1035.67 349.333 1034 352.667 1034 356 1209 356 1209 356 1209 356 1208.58 352.667 1206.91 349.333 1203.99 347.667Z" fill="#D6DCE5" fill-rule="evenodd"/><path d="M1038.03 459.244C1115.97 503.351 1115.97 503.351 1115.97 503.351 1118.9 505 1122.68 505 1126.03 503.351 1203.97 459.244 1203.97 459.244 1203.97 459.244 1206.9 457.595 1208.58 454.298 1209 451 1033 451 1033 451 1033 451 1033.42 454.298 1035.1 457.183 1038.03 459.244Z" fill="#D6DCE5" fill-rule="evenodd"/><path d="M1209 358C1209 358 1209 358 1209 358 1033.42 358 1033.42 358 1033.42 358 1033.42 358 1033 358 1033 358 1033 448.579 1033 448.579 1033 448.579 1033 449 1033 449 1033 449 1209 449 1209 449 1209 449 1209 449 1209 449 1209 449L1209 358Z" fill="#D6DCE5" fill-rule="evenodd"/><rect x="268" y="377" width="135" height="57" fill="#D6DCE5"/><text fill="#CC1616" font-family="Bernard MT Condensed,Bernard MT Condensed_MSFontService,sans-serif" font-weight="400" font-stretch="condensed" font-size="19" transform="translate(276.512 395)">Market Research</text><text fill="#CC1616" font-family="Bernard MT Condensed,Bernard MT Condensed_MSFontService,sans-serif" font-weight="400" font-stretch="condensed" font-size="16" transform="translate(427.25 253)">Identify business opportunities and</text><text fill="#CC1616" font-family="Bernard MT Condensed,Bernard MT Condensed_MSFontService,sans-serif" font-weight="400" font-stretch="condensed" font-size="16" transform="translate(414.416 272)">connecting potential buyers and sellers</text><text fill="#CC1616" font-family="Bernard MT Condensed,Bernard MT Condensed_MSFontService,sans-serif" font-weight="400" font-stretch="condensed" font-size="16" transform="translate(836.705 242)">Support different stages of</text><text fill="#CC1616" font-family="Bernard MT Condensed,Bernard MT Condensed_MSFontService,sans-serif" font-weight="400" font-stretch="condensed" font-size="16" transform="translate(826.952 261)">sourcing/trading activities as</text><text fill="#CC1616" font-family="Bernard MT Condensed,Bernard MT Condensed_MSFontService,sans-serif" font-weight="400" font-stretch="condensed" font-size="16" transform="translate(870.792 280)">trusted partner</text><text fill="#CC1616" font-family="Bernard MT Condensed,Bernard MT Condensed_MSFontService,sans-serif" font-weight="400" font-stretch="condensed" font-size="16" transform="translate(239.042 572)">Market Analysis, Competitive</text><text fill="#CC1616" font-family="Bernard MT Condensed,Bernard MT Condensed_MSFontService,sans-serif" font-weight="400" font-stretch="condensed" font-size="16" transform="translate(298.622 591)">Research</text><text fill="#CC1616" font-family="Bernard MT Condensed,Bernard MT Condensed_MSFontService,sans-serif" font-weight="400" font-stretch="condensed" font-size="16" transform="translate(675.086 565)">Handling enquiries,</text><text fill="#CC1616" font-family="Bernard MT Condensed,Bernard MT Condensed_MSFontService,sans-serif" font-weight="400" font-stretch="condensed" font-size="16" transform="translate(674.667 584)">communication and</text><text fill="#CC1616" font-family="Bernard MT Condensed,Bernard MT Condensed_MSFontService,sans-serif" font-weight="400" font-stretch="condensed" font-size="16" transform="translate(644.82 603)">requirements as local partner</text><text fill="#CC1616" font-family="Bernard MT Condensed,Bernard MT Condensed_MSFontService,sans-serif" font-weight="400" font-stretch="condensed" font-size="16" transform="translate(1055.44 566)">Support (on agreement)</text><text fill="#CC1616" font-family="Bernard MT Condensed,Bernard MT Condensed_MSFontService,sans-serif" font-weight="400" font-stretch="condensed" font-size="16" transform="translate(1070.03 585)">as local contact for</text><text fill="#CC1616" font-family="Bernard MT Condensed,Bernard MT Condensed_MSFontService,sans-serif" font-weight="400" font-stretch="condensed" font-size="16" transform="translate(1067.03 604)">shipment, legal and</text><text fill="#CC1616" font-family="Bernard MT Condensed,Bernard MT Condensed_MSFontService,sans-serif" font-weight="400" font-stretch="condensed" font-size="16" transform="translate(1106.61 623)">custom</text><rect x="465" y="373" width="135" height="48" fill="#D6DCE5"/><text fill="#CC1616" font-family="Bernard MT Condensed,Bernard MT Condensed_MSFontService,sans-serif" font-weight="400" font-stretch="condensed" font-size="19" transform="translate(493.482 391)">Identifying</text><text fill="#CC1616" font-family="Bernard MT Condensed,Bernard MT Condensed_MSFontService,sans-serif" font-weight="400" font-stretch="condensed" font-size="19" transform="translate(480.395 414)">Buyers/Sellers</text><rect x="661" y="377" width="136" height="57" fill="#D6DCE5"/><text fill="#CC1616" font-family="Bernard MT Condensed,Bernard MT Condensed_MSFontService,sans-serif" font-weight="400" font-stretch="condensed" font-size="19" transform="translate(667.348 395)">Enquiry handling</text><rect x="1058" y="371" width="135" height="76" fill="#D6DCE5"/><text fill="#CC1616" font-family="Bernard MT Condensed,Bernard MT Condensed_MSFontService,sans-serif" font-weight="400" font-stretch="condensed" font-size="19" transform="translate(1077.57 389)">Support Inco</text><text fill="#CC1616" font-family="Bernard MT Condensed,Bernard MT Condensed_MSFontService,sans-serif" font-weight="400" font-stretch="condensed" font-size="19" transform="translate(1168.07 389)">-</text><text fill="#CC1616" font-family="Bernard MT Condensed,Bernard MT Condensed_MSFontService,sans-serif" font-weight="400" font-stretch="condensed" font-size="19" transform="translate(1089.82 412)">terms and</text><text fill="#CC1616" font-family="Bernard MT Condensed,Bernard MT Condensed_MSFontService,sans-serif" font-weight="400" font-stretch="condensed" font-size="19" transform="translate(1084 434)">agreements</text><rect x="860" y="371" width="135" height="76" fill="#D6DCE5"/><text fill="#CC1616" font-family="Bernard MT Condensed,Bernard MT Condensed_MSFontService,sans-serif" font-weight="400" font-stretch="condensed" font-size="19" transform="translate(892.393 389)">Managing</text><text fill="#CC1616" font-family="Bernard MT Condensed,Bernard MT Condensed_MSFontService,sans-serif" font-weight="400" font-stretch="condensed" font-size="19" transform="translate(873.727 412)">quotations and</text><text fill="#CC1616" font-family="Bernard MT Condensed,Bernard MT Condensed_MSFontService,sans-serif" font-weight="400" font-stretch="condensed" font-size="19" transform="translate(883.146 434)">negotiations</text><rect x="71" y="374" width="136" height="60" fill="#D6DCE5"/><text fill="#CC1616" font-family="Bernard MT Condensed,Bernard MT Condensed_MSFontService,sans-serif" font-weight="400" font-stretch="condensed" font-size="19" transform="translate(109.007 392)">Business</text><text fill="#CC1616" font-family="Bernard MT Condensed,Bernard MT Condensed_MSFontService,sans-serif" font-weight="400" font-stretch="condensed" font-size="19" transform="translate(102.087 415)">Consulting</text></g></svg>